<?xml version="1.0" encoding="UTF-8" standalone="no"?>
<!-- Created with Inkscape (http://www.inkscape.org/) -->

<svg
   xmlns:dc="http://purl.org/dc/elements/1.1/"
   xmlns:cc="http://creativecommons.org/ns#"
   xmlns:rdf="http://www.w3.org/1999/02/22-rdf-syntax-ns#"
   xmlns:svg="http://www.w3.org/2000/svg"
   xmlns="http://www.w3.org/2000/svg"
   xmlns:sodipodi="http://sodipodi.sourceforge.net/DTD/sodipodi-0.dtd"
   xmlns:inkscape="http://www.inkscape.org/namespaces/inkscape"
   width="300mm"
   height="200mm"
   viewBox="0 0 1062.9921 708.6614"
   id="svg6155"
   version="1.1"
   inkscape:version="0.91 r13725"
   sodipodi:docname="pancakeBot lasercut sheet 4.svg">
  <defs
     id="defs6157" />
  <sodipodi:namedview
     id="base"
     pagecolor="#ffffff"
     bordercolor="#666666"
     borderopacity="1.0"
     inkscape:pageopacity="0.0"
     inkscape:pageshadow="2"
     inkscape:zoom="0.49497475"
     inkscape:cx="538.45763"
     inkscape:cy="405.71429"
     inkscape:document-units="mm"
     inkscape:current-layer="layer1"
     showgrid="false"
     inkscape:window-width="958"
     inkscape:window-height="1008"
     inkscape:window-x="953"
     inkscape:window-y="0"
     inkscape:window-maximized="0" />
  <metadata
     id="metadata6160">
    <rdf:RDF>
      <cc:Work
         rdf:about="">
        <dc:format>image/svg+xml</dc:format>
        <dc:type
           rdf:resource="http://purl.org/dc/dcmitype/StillImage" />
        <dc:title></dc:title>
      </cc:Work>
    </rdf:RDF>
  </metadata>
  <g
     inkscape:label="Layer 1"
     inkscape:groupmode="layer"
     id="layer1"
     transform="translate(0,-343.70079)">
    <g
       id="Ortho_0_015"
       transform="matrix(3.5433071,0,0,3.5433071,626.76088,686.4383)">
      <g
         style="fill:none;stroke:#000000;stroke-width:0.34999999;stroke-linecap:butt;stroke-linejoin:miter"
         transform="scale(1,-1)"
         id="g96">
        <path
           inkscape:connector-curvature="0"
           id="path98"
           d="m -169,-37 0,17.5" />
        <path
           inkscape:connector-curvature="0"
           id="path100"
           d="m -169,-37 3,0" />
        <path
           inkscape:connector-curvature="0"
           id="path102"
           d="m 111,-74 -22,0" />
        <path
           inkscape:connector-curvature="0"
           id="path104"
           d="m 89,-77 0,3" />
        <path
           inkscape:connector-curvature="0"
           id="path106"
           d="m 64,-77 25,0" />
        <path
           inkscape:connector-curvature="0"
           id="path108"
           d="m 64,-77 0,3" />
        <path
           inkscape:connector-curvature="0"
           id="path110"
           d="m 64,-74 -25,0" />
        <path
           inkscape:connector-curvature="0"
           id="path112"
           d="m 39,-77 0,3" />
        <path
           inkscape:connector-curvature="0"
           id="path114"
           d="m -69,-77 108,0" />
        <path
           inkscape:connector-curvature="0"
           id="path116"
           d="m -69,-77 0,3" />
        <path
           inkscape:connector-curvature="0"
           id="path118"
           d="m -69,-74 -25,0" />
        <path
           inkscape:connector-curvature="0"
           id="path120"
           d="m -94,-77 0,3" />
        <path
           inkscape:connector-curvature="0"
           id="path122"
           d="m -119,-77 25,0" />
        <path
           inkscape:connector-curvature="0"
           id="path124"
           d="m -119,-77 0,3" />
        <path
           inkscape:connector-curvature="0"
           id="path126"
           d="m -119,-74 -25,0" />
        <path
           inkscape:connector-curvature="0"
           id="path128"
           d="m -144,-77 0,3" />
        <path
           inkscape:connector-curvature="0"
           id="path130"
           d="m -166,-77 22,0" />
        <path
           inkscape:connector-curvature="0"
           id="path132"
           d="m -166,-77 0,40" />
        <path
           inkscape:connector-curvature="0"
           id="path134"
           d="m -169,-19.5 3,0" />
        <path
           inkscape:connector-curvature="0"
           id="path136"
           d="m -166,-19.5 0,40" />
        <path
           inkscape:connector-curvature="0"
           id="path138"
           d="m -169,20.5 3,0" />
        <path
           inkscape:connector-curvature="0"
           id="path140"
           d="m -169,20.5 0,17.5" />
        <path
           inkscape:connector-curvature="0"
           id="path142"
           d="m -169,38 3,0" />
        <path
           inkscape:connector-curvature="0"
           id="path144"
           d="m -166,38 0,40" />
        <path
           inkscape:connector-curvature="0"
           id="25"
           d="m -166,78 22,0" />
        <path
           inkscape:connector-curvature="0"
           id="26"
           d="m -144,75 0,3" />
        <path
           inkscape:connector-curvature="0"
           id="27"
           d="m -119,75 -25,0" />
        <path
           inkscape:connector-curvature="0"
           id="28"
           d="m -119,75 0,3" />
        <path
           inkscape:connector-curvature="0"
           id="29"
           d="m -119,78 25,0" />
        <path
           inkscape:connector-curvature="0"
           id="30"
           d="m -94,75 0,3" />
        <path
           inkscape:connector-curvature="0"
           id="31"
           d="m -69,75 -25,0" />
        <path
           inkscape:connector-curvature="0"
           id="32"
           d="m -69,75 0,3" />
        <path
           inkscape:connector-curvature="0"
           id="33"
           d="M -69,78 39,78" />
        <path
           inkscape:connector-curvature="0"
           id="34"
           d="m 39,75 0,3" />
        <path
           inkscape:connector-curvature="0"
           id="35"
           d="M 64,75 39,75" />
        <path
           inkscape:connector-curvature="0"
           id="36"
           d="m 64,75 0,3" />
        <path
           inkscape:connector-curvature="0"
           id="37"
           d="m 64,78 25,0" />
        <path
           inkscape:connector-curvature="0"
           id="38"
           d="m 89,75 0,3" />
        <path
           inkscape:connector-curvature="0"
           id="39"
           d="M 111,75 89,75" />
        <path
           inkscape:connector-curvature="0"
           id="40"
           d="m 111,38 0,37" />
        <path
           inkscape:connector-curvature="0"
           id="41"
           d="m 111,38 3,0" />
        <path
           inkscape:connector-curvature="0"
           id="42"
           d="M 114,20.5 114,38" />
        <path
           inkscape:connector-curvature="0"
           id="43"
           d="m 111,20.5 3,0" />
        <path
           inkscape:connector-curvature="0"
           id="44"
           d="m 111,-19.5 0,40" />
        <path
           inkscape:connector-curvature="0"
           id="45"
           d="m 111,-19.5 3,0" />
        <path
           inkscape:connector-curvature="0"
           id="46"
           d="m 114,-37 0,17.5" />
        <path
           inkscape:connector-curvature="0"
           id="47"
           d="m 111,-37 3,0" />
        <path
           inkscape:connector-curvature="0"
           id="48"
           d="m 111,-74 0,37" />
      </g>
    </g>
  </g>
</svg>
