<?xml version="1.0" encoding="UTF-8"?>

<svg xmlns="http://www.w3.org/2000/svg" version="1.1"
	width="594mm"
	height="420mm"
	viewBox="0 0 594 420">
	<!-- Working space 0 0 594 420 -->
	<defs>
		<radialGradient
			id="radialGradient3661"
			gradientUnits="userSpaceOnUse"
			cy="29.149"
			cx="282.65"
			gradientTransform="matrix(.14777 .23089 -.24680 .15795 -26.318 -62.617)"
			r="19.571">
				<stop stop-color="#71b2f8" offset="0"/>
				<stop stop-color="#002795" offset="1"/>
		</radialGradient>
		<radialGradient
			id="radialGradient3817"
			gradientUnits="userSpaceOnUse"
			cy="33.9"
			cx="270.58"
			gradientTransform="matrix(.26631 .065024 -.17931 .73438 -60.668 -36.938)"
			r="19.571">
				<stop stop-color="#ff6d0f" offset="0"/>
				<stop stop-color="#ff1000" offset="1"/>
		</radialGradient>
	</defs>
	<!-- Set display:none to hide FreeCAD Logo -->
	<g
		style="display:inline"
		id="freecad-logo"
		transform="translate(552, 380) scale(2)"
		fill-rule="evenodd"
		stroke-width=".45621">
		<path d="m0.22811 0.22835v13.256h2.9558v-5.1876h2.09v-2.0452h-2.09v-2.2075h5.1486v-3.8087l-8.1044-0.0075z"
			stroke="#370700"
			fill="url(#radialGradient3817)"/>
		<path d="m13.386 4.1792-1.7193 0.98645-0.75925-0.26348-0.72439-1.8513-1.1395 0.05988-0.51976 1.9144-0.72743 0.34835-1.8143-0.79367-0.76632 0.85156 0.98645 1.7193-0.26957 0.75702-1.8513 0.72439 0.065967 1.1417 1.9144 0.51976 0.34835 0.72743-0.79976 1.8121 0.85156 0.76632 1.7193-0.98645 0.76311 0.27179 0.7183 1.8491 1.1478-0.06375 0.51367-1.9166 0.72743-0.34835 1.8182 0.80198 0.76632-0.85156-0.98645-1.7193 0.2657-0.76533 1.8491-0.7183-0.05766-1.1456-1.9166-0.51367-0.34835-0.72743 0.7959-1.8204-0.85156-0.76632zm-2.5751 2.8195 0.35295 0.20478 0.30579 0.27725 0.24481 0.33087 0.17611 0.36787 0.10354 0.39656 0.01715 0.4064-0.0587 0.4063-0.13396 0.38571-0.2131 0.35681-0.26894 0.30192-0.33087 0.24481-0.36787 0.17611-0.39656 0.10354-0.40863 0.02325-0.4063-0.0587-0.38571-0.13396-0.35681-0.2131-0.2997-0.27503-0.24703-0.32478-0.17611-0.36787-0.10132-0.40264-0.02324-0.40863 0.05869-0.4063 0.13396-0.38571 0.21087-0.35072 0.27116-0.30801 0.33087-0.24481 0.36787-0.17611 0.40264-0.10132 0.40641-0.01715 0.4063 0.05869 0.38571 0.13396z" 
		stroke="#000137"
		fill="url(#radialGradient3661)"/>
	</g>
<g id="Ortho_0_013"
   transform="rotate(0,183.5,272) translate(183.5,272) scale(1,1)"
  >
<g   stroke="rgb(0, 0, 0)"
   stroke-width="0.35"
   stroke-linecap="butt"
   stroke-linejoin="miter"
   fill="none"
   transform="scale(1,-1)"
  >
<path id= "1" d=" M -169 63 L -169 70.5 " />
<path id= "2" d=" M -169 70.5 L -166 70.5 " />
<path id= "3" d=" M -166 75 L -166 70.5 " />
<path id= "4" d=" M -131 75 L -166 75 " />
<path id= "5" d=" M -131 78 L -131 75 " />
<path id= "6" d=" M -131 78 L -96 78 " />
<path id= "7" d=" M -96 78 L -96 75 " />
<path id= "8" d=" M -61 75 L -96 75 " />
<path id= "9" d=" M -61 78 L -61 75 " />
<path id= "10" d=" M -61 78 L -26 78 " />
<path id= "11" d=" M -26 78 L -26 75 " />
<path id= "12" d=" M 9 75 L -26 75 " />
<path id= "13" d=" M 9 78 L 9 75 " />
<path id= "14" d=" M 9 78 L 44 78 " />
<path id= "15" d=" M 44 78 L 44 75 " />
<path id= "16" d=" M 79 75 L 44 75 " />
<path id= "17" d=" M 79 78 L 79 75 " />
<path id= "18" d=" M 79 78 L 111 78 " />
<path id= "19" d=" M 111 75 L 111 78 " />
<path id= "20" d=" M 114 75 L 111 75 " />
<path id= "21" d=" M 114 70.5 L 114 75 " />
<path id= "22" d=" M 114 70.5 L 111 70.5 " />
<path id= "23" d=" M 111 63 L 111 70.5 " />
<path id= "24" d=" M -169 63 L 111 63 " />
</g>
</g>



<g id="Ortho_0_014"
   transform="rotate(90,187,94) translate(187,94) scale(1,1)"
  >
<g   stroke="rgb(0, 0, 0)"
   stroke-width="0.35"
   stroke-linecap="butt"
   stroke-linejoin="miter"
   fill="none"
   transform="scale(1,-1)"
  >
<path id= "1" d=" M 80 -169 L 87.5 -169 " />
<path id= "2" d=" M 87.5 -169 L 87.5 -166 " />
<path id= "3" d=" M 80 114 L 87.5 114 " />
<path id= "4" d=" M 87.5 114 L 87.5 111 " />
<path id= "5" d=" M 92 111 L 87.5 111 " />
<path id= "6" d=" M 92 79 L 92 111 " />
<path id= "7" d=" M 95 79 L 92 79 " />
<path id= "8" d=" M 95 44 L 95 79 " />
<path id= "9" d=" M 92 44 L 95 44 " />
<path id= "10" d=" M 92 9 L 92 44 " />
<path id= "11" d=" M 95 9 L 92 9 " />
<path id= "12" d=" M 95 -26 L 95 9 " />
<path id= "13" d=" M 92 -26 L 95 -26 " />
<path id= "14" d=" M 92 -61 L 92 -26 " />
<path id= "15" d=" M 95 -61 L 92 -61 " />
<path id= "16" d=" M 95 -96 L 95 -61 " />
<path id= "17" d=" M 92 -96 L 95 -96 " />
<path id= "18" d=" M 92 -131 L 92 -96 " />
<path id= "19" d=" M 95 -131 L 92 -131 " />
<path id= "20" d=" M 95 -166 L 95 -131 " />
<path id= "21" d=" M 87.5 -166 L 95 -166 " />
<path id= "22" d=" M 80 -169 L 80 114 " />
</g>
</g>



<g id="Ortho_0_015"
   transform="rotate(0,184.5,93) translate(184.5,93) scale(1,1)"
  >
<g   stroke="rgb(0, 0, 0)"
   stroke-width="0.35"
   stroke-linecap="butt"
   stroke-linejoin="miter"
   fill="none"
   transform="scale(1,-1)"
  >
<path id= "1" d=" M -169 -37 L -169 -19.5 " />
<path id= "2" d=" M -169 -37 L -166 -37 " />
<path id= "3" d=" M 111 -74 L 89 -74 " />
<path id= "4" d=" M 89 -77 L 89 -74 " />
<path id= "5" d=" M 64 -77 L 89 -77 " />
<path id= "6" d=" M 64 -77 L 64 -74 " />
<path id= "7" d=" M 64 -74 L 39 -74 " />
<path id= "8" d=" M 39 -77 L 39 -74 " />
<path id= "9" d=" M -69 -77 L 39 -77 " />
<path id= "10" d=" M -69 -77 L -69 -74 " />
<path id= "11" d=" M -69 -74 L -94 -74 " />
<path id= "12" d=" M -94 -77 L -94 -74 " />
<path id= "13" d=" M -119 -77 L -94 -77 " />
<path id= "14" d=" M -119 -77 L -119 -74 " />
<path id= "15" d=" M -119 -74 L -144 -74 " />
<path id= "16" d=" M -144 -77 L -144 -74 " />
<path id= "17" d=" M -166 -77 L -144 -77 " />
<path id= "18" d=" M -166 -77 L -166 -37 " />
<path id= "19" d=" M -169 -19.5 L -166 -19.5 " />
<path id= "20" d=" M -166 -19.5 L -166 20.5 " />
<path id= "21" d=" M -169 20.5 L -166 20.5 " />
<path id= "22" d=" M -169 20.5 L -169 38 " />
<path id= "23" d=" M -169 38 L -166 38 " />
<path id= "24" d=" M -166 38 L -166 78 " />
<path id= "25" d=" M -166 78 L -144 78 " />
<path id= "26" d=" M -144 75 L -144 78 " />
<path id= "27" d=" M -119 75 L -144 75 " />
<path id= "28" d=" M -119 75 L -119 78 " />
<path id= "29" d=" M -119 78 L -94 78 " />
<path id= "30" d=" M -94 75 L -94 78 " />
<path id= "31" d=" M -69 75 L -94 75 " />
<path id= "32" d=" M -69 75 L -69 78 " />
<path id= "33" d=" M -69 78 L 39 78 " />
<path id= "34" d=" M 39 75 L 39 78 " />
<path id= "35" d=" M 64 75 L 39 75 " />
<path id= "36" d=" M 64 75 L 64 78 " />
<path id= "37" d=" M 64 78 L 89 78 " />
<path id= "38" d=" M 89 75 L 89 78 " />
<path id= "39" d=" M 111 75 L 89 75 " />
<path id= "40" d=" M 111 38 L 111 75 " />
<path id= "41" d=" M 111 38 L 114 38 " />
<path id= "42" d=" M 114 20.5 L 114 38 " />
<path id= "43" d=" M 111 20.5 L 114 20.5 " />
<path id= "44" d=" M 111 -19.5 L 111 20.5 " />
<path id= "45" d=" M 111 -19.5 L 114 -19.5 " />
<path id= "46" d=" M 114 -37 L 114 -19.5 " />
<path id= "47" d=" M 111 -37 L 114 -37 " />
<path id= "48" d=" M 111 -74 L 111 -37 " />
</g>
</g>



<g id="Ortho_0_016"
   transform="rotate(0,181.5,293) translate(181.5,293) scale(1,1)"
  >
<g   stroke="rgb(0, 0, 0)"
   stroke-width="0.35"
   stroke-linecap="butt"
   stroke-linejoin="miter"
   fill="none"
   transform="scale(1,-1)"
  >
<path id= "1" d=" M -169 -37 L -169 -19.5 " />
<path id= "2" d=" M 111 -77 L 111 -37 " />
<path id= "3" d=" M 89 -77 L 111 -77 " />
<path id= "4" d=" M 111 -37 L 114 -37 " />
<path id= "5" d=" M 89 -77 L 89 -74 " />
<path id= "6" d=" M 114 -37 L 114 -19.5 " />
<path id= "7" d=" M 89 -74 L 64 -74 " />
<path id= "8" d=" M 111 -19.5 L 114 -19.5 " />
<path id= "9" d=" M 64 -77 L 64 -74 " />
<path id= "10" d=" M 111 -19.5 L 111 20.5 " />
<path id= "11" d=" M 39 -77 L 64 -77 " />
<path id= "12" d=" M 111 20.5 L 114 20.5 " />
<path id= "13" d=" M 39 -77 L 39 -74 " />
<path id= "14" d=" M 114 20.5 L 114 38 " />
<path id= "15" d=" M 39 -74 L 14 -74 " />
<path id= "16" d=" M 111 38 L 114 38 " />
<path id= "17" d=" M 14 -77 L 14 -74 " />
<path id= "18" d=" M 111 38 L 111 78 " />
<path id= "19" d=" M -94 -77 L 14 -77 " />
<path id= "20" d=" M 89 78 L 111 78 " />
<path id= "21" d=" M -94 -77 L -94 -74 " />
<path id= "22" d=" M 89 75 L 89 78 " />
<path id= "23" d=" M -94 -74 L -119 -74 " />
<path id= "24" d=" M 89 75 L 64 75 " />
<path id= "25" d=" M -119 -77 L -119 -74 " />
<path id= "26" d=" M 64 75 L 64 78 " />
<path id= "27" d=" M -144 -77 L -119 -77 " />
<path id= "28" d=" M 39 78 L 64 78 " />
<path id= "29" d=" M -144 -77 L -144 -74 " />
<path id= "30" d=" M 39 75 L 39 78 " />
<path id= "31" d=" M -144 -74 L -166 -74 " />
<path id= "32" d=" M 39 75 L 14 75 " />
<path id= "33" d=" M -166 -74 L -166 -37 " />
<path id= "34" d=" M 14 75 L 14 78 " />
<path id= "35" d=" M -169 -37 L -166 -37 " />
<path id= "36" d=" M -94 78 L 14 78 " />
<path id= "37" d=" M -94 75 L -94 78 " />
<path id= "38" d=" M -169 -19.5 L -166 -19.5 " />
<path id= "39" d=" M -94 75 L -119 75 " />
<path id= "40" d=" M -166 -19.5 L -166 20.5 " />
<path id= "41" d=" M -119 75 L -119 78 " />
<path id= "42" d=" M -169 20.5 L -166 20.5 " />
<path id= "43" d=" M -144 78 L -119 78 " />
<path id= "44" d=" M -169 20.5 L -169 38 " />
<path id= "45" d=" M -144 75 L -144 78 " />
<path id= "46" d=" M -169 38 L -166 38 " />
<path id= "47" d=" M -144 75 L -166 75 " />
<path id= "48" d=" M -166 38 L -166 75 " />
<circle cx ="35" cy ="-62.5" r ="3" /><circle cx ="-27.5" cy ="0.5" r ="13" /><circle cx ="-3.9944" cy ="-23" r ="1.75" /><circle cx ="35" cy ="62.5" r ="3" /><circle cx ="-4" cy ="24.0056" r ="1.75" /><circle cx ="-51.0056" cy ="24" r ="1.75" /><circle cx ="-51" cy ="-23.0056" r ="1.75" /><circle cx ="-90" cy ="-62.5" r ="3" /><circle cx ="-90" cy ="62.5" r ="3" /></g>
</g>



<g id="Ortho_0_017"
   transform="rotate(-180,404.5,92.5) translate(404.5,92.5) scale(1,1)"
  >
<g   stroke="rgb(0, 0, 0)"
   stroke-width="0.35"
   stroke-linecap="butt"
   stroke-linejoin="miter"
   fill="none"
   transform="scale(1,-1)"
  >
<path id= "1" d=" M -115 77 L -112 77 " />
<path id= "2" d=" M -115 77 L -115 37 " />
<path id= "3" d=" M -112 77 L -112 74 " />
<path id= "4" d=" M -115 37 L -112 37 " />
<path id= "5" d=" M -112 74 L -92.5 74 " />
<path id= "6" d=" M -112 37 L -112 19.5 " />
<path id= "7" d=" M -92.5 77 L -92.5 74 " />
<path id= "8" d=" M -112 19.5 L -115 19.5 " />
<path id= "9" d=" M -92.5 77 L -73 77 " />
<path id= "10" d=" M -115 19.5 L -115 -20.5 " />
<path id= "11" d=" M -73 77 L -73 74 " />
<path id= "12" d=" M -115 -20.5 L -112 -20.5 " />
<path id= "13" d=" M -73 74 L -70 74 " />
<path id= "14" d=" M -112 -20.5 L -112 -38 " />
<path id= "15" d=" M -70 74 L -70 77 " />
<path id= "16" d=" M -112 -38 L -115 -38 " />
<path id= "17" d=" M -70 77 L 95 77 " />
<path id= "18" d=" M -115 -38 L -115 -78 " />
<path id= "19" d=" M 95 77 L 95 -63 " />
<path id= "20" d=" M -115 -78 L -112 -78 " />
<path id= "21" d=" M 95 -63 L 92 -63 " />
<path id= "22" d=" M -112 -75 L -112 -78 " />
<path id= "23" d=" M 92 -63 L 92 -70.5 " />
<path id= "24" d=" M -112 -75 L -92.5 -75 " />
<path id= "25" d=" M 92 -70.5 L 95 -70.5 " />
<path id= "26" d=" M -92.5 -75 L -92.5 -78 " />
<path id= "27" d=" M 95 -70.5 L 95 -78 " />
<path id= "28" d=" M -92.5 -78 L -73 -78 " />
<path id= "29" d=" M 87.5 -78 L 95 -78 " />
<path id= "30" d=" M -73 -75 L -73 -78 " />
<path id= "31" d=" M 87.5 -78 L 87.5 -75 " />
<path id= "32" d=" M -73 -75 L -70 -75 " />
<path id= "33" d=" M 87.5 -75 L 80 -75 " />
<path id= "34" d=" M -70 -78 L -70 -75 " />
<path id= "35" d=" M 80 -75 L 80 -78 " />
<path id= "36" d=" M -70 -78 L 80 -78 " />
<path id= "37" d=" M -73 -20.5 L -70 -20.5 " />
<path id= "38" d=" M -73 -38 L -73 -20.5 " />
<path id= "39" d=" M -70 -20.5 L -70 -38 " />
<path id= "40" d=" M -70 -38 L -73 -38 " />
<path id= "41" d=" M -70 19.5 L -73 19.5 " />
<path id= "42" d=" M -70 37 L -70 19.5 " />
<path id= "43" d=" M -73 19.5 L -73 37 " />
<path id= "44" d=" M -73 37 L -70 37 " />
<circle cx ="70" cy ="44" r ="4" /><circle cx ="70" cy ="30" r ="3.25" /><circle cx ="70" cy ="-44" r ="7.5" /><circle cx ="70" cy ="-32.5" r ="2" /><circle cx ="58.5" cy ="-44" r ="2" /><circle cx ="70" cy ="-55.5" r ="2" /><circle cx ="81.5" cy ="-44" r ="2" /><circle cx ="70" cy ="58" r ="3.25" /></g>
</g>



<g id="Ortho_0_018"
   transform="rotate(-180,404.5,259.5) translate(404.5,259.5) scale(1,1)"
  >
<g   stroke="rgb(0, 0, 0)"
   stroke-width="0.35"
   stroke-linecap="butt"
   stroke-linejoin="miter"
   fill="none"
   transform="scale(1,-1)"
  >
<path id= "1" d=" M -115 77 L -92.5 77 " />
<path id= "2" d=" M -115 77 L -115 37 " />
<path id= "3" d=" M -92.5 77 L -92.5 74 " />
<path id= "4" d=" M -115 37 L -112 37 " />
<path id= "5" d=" M -92.5 74 L -73 74 " />
<path id= "6" d=" M -112 37 L -112 19.5 " />
<path id= "7" d=" M -73 77 L -73 74 " />
<path id= "8" d=" M -112 19.5 L -115 19.5 " />
<path id= "9" d=" M -73 77 L 95 77 " />
<path id= "10" d=" M -115 19.5 L -115 -20.5 " />
<path id= "11" d=" M 95 77 L 95 -70.5 " />
<path id= "12" d=" M -115 -20.5 L -112 -20.5 " />
<path id= "13" d=" M 92 -70.5 L 95 -70.5 " />
<path id= "14" d=" M -112 -20.5 L -112 -38 " />
<path id= "15" d=" M 92 -78 L 92 -70.5 " />
<path id= "16" d=" M -112 -38 L -115 -38 " />
<path id= "17" d=" M 87.5 -78 L 92 -78 " />
<path id= "18" d=" M -115 -38 L -115 -75 " />
<path id= "19" d=" M 87.5 -75 L 87.5 -78 " />
<path id= "20" d=" M -115 -75 L -112 -75 " />
<path id= "21" d=" M 80 -75 L 87.5 -75 " />
<path id= "22" d=" M -112 -75 L -112 -78 " />
<path id= "23" d=" M 80 -78 L 80 -75 " />
<path id= "24" d=" M -112 -78 L -92.5 -78 " />
<path id= "25" d=" M -73 -78 L 80 -78 " />
<path id= "26" d=" M -92.5 -75 L -92.5 -78 " />
<path id= "27" d=" M -73 -75 L -73 -78 " />
<path id= "28" d=" M -92.5 -75 L -73 -75 " />
<path id= "29" d=" M -1 -45 L -26 -45 " />
<path id= "30" d=" M -26 -42 L -26 -45 " />
<path id= "31" d=" M -1 -42 L -1 -45 " />
<path id= "32" d=" M -1 -42 L -26 -42 " />
<path id= "33" d=" M -1 -20 L -26 -20 " />
<path id= "34" d=" M -26 -17 L -26 -20 " />
<path id= "35" d=" M -1 -17 L -1 -20 " />
<path id= "36" d=" M -1 -17 L -26 -17 " />
<path id= "37" d=" M -1 -66 L -26 -66 " />
<path id= "38" d=" M -26 -66 L -26 -69 " />
<path id= "39" d=" M -1 -66 L -1 -69 " />
<path id= "40" d=" M -1 -69 L -26 -69 " />
<path id= "41" d=" M 24.0002 -16.8979 L 24.0002 -19.8979 " />
<path id= "42" d=" M 49 -17 L 24.0002 -16.8979 " />
<path id= "43" d=" M 46 -19.9878 L 24.0002 -19.8979 " />
<path id= "44" d=" M 49 -17 L 49 -20 " />
<path id= "45" d=" M 46 -41.9878 L 46 -19.9878 " />
<path id= "46" d=" M 49 -42 L 49 -20 " />
<path id= "47" d=" M 46 -41.9878 L 24.0002 -41.8979 " />
<path id= "48" d=" M 49 -42 L 49 -45 " />
<path id= "49" d=" M 24.0002 -41.8979 L 24.0002 -44.8979 " />
<path id= "50" d=" M 49 -66 L 49 -45 " />
<path id= "51" d=" M 46 -44.9878 L 24.0002 -44.8979 " />
<path id= "52" d=" M 49 -66 L 49 -69 " />
<path id= "53" d=" M 46 -65.9878 L 46 -44.9878 " />
<path id= "54" d=" M 46 -69 L 49 -69 " />
<path id= "55" d=" M 46 -65.9878 L 24.0002 -65.8979 " />
<path id= "56" d=" M 46 -69 L 46 -68.9878 " />
<path id= "57" d=" M 24.0002 -65.8979 L 24.0002 -68.8979 " />
<path id= "58" d=" M 46 -68.9878 L 24.0002 -68.8979 " />
<circle cx ="70" cy ="30" r ="3.25" /><circle cx ="70" cy ="-44" r ="10" /><circle cx ="70" cy ="58" r ="3.25" /><circle cx ="70" cy ="44" r ="4" /><path id= "63" d=" M -51 -66 L -51 -69 " />
<path id= "64" d=" M -54 -66 L -51 -66 " />
<path id= "65" d=" M -54 -69 L -51 -69 " />
<path id= "66" d=" M -54 -66 L -54 -69 " />
<path id= "67" d=" M -54 -42 L -54 -45 " />
<path id= "68" d=" M -54 -42 L -51 -42 " />
<path id= "69" d=" M -54 -45 L -51 -45 " />
<path id= "70" d=" M -51 -42 L -51 -45 " />
<path id= "71" d=" M -54 -17 L -51 -17 " />
<path id= "72" d=" M -51 -17 L -51 -20 " />
<path id= "73" d=" M -54 -17 L -54 -20 " />
<path id= "74" d=" M -54 -20 L -51 -20 " />
<path id= "75" d=" M -70 37 L -70 19.5 " />
<path id= "76" d=" M -73 37 L -70 37 " />
<path id= "77" d=" M -70 19.5 L -73 19.5 " />
<path id= "78" d=" M -73 19.5 L -73 37 " />
<path id= "79" d=" M -73 -38 L -73 -20.5 " />
<path id= "80" d=" M -70 -38 L -73 -38 " />
<path id= "81" d=" M -73 -20.5 L -70 -20.5 " />
<path id= "82" d=" M -70 -20.5 L -70 -38 " />
</g>
</g>



</svg>

